<svg xmlns="http://www.w3.org/2000/svg" version="1.1" xmlns:xlink="http://www.w3.org/1999/xlink" xmlns:svgjs="http://svgjs.dev/svgjs" width="2000" height="676" viewBox="0 0 2000 676"><g transform="matrix(1,0,0,1,-1.2121212121212466,-1.8631638888853104)"><svg viewBox="0 0 396 134" data-background-color="#f9f9f9" preserveAspectRatio="xMidYMid meet" height="676" width="2000" xmlns="http://www.w3.org/2000/svg" xmlns:xlink="http://www.w3.org/1999/xlink"><g id="tight-bounds" transform="matrix(1,0,0,1,0.2400000000000091,0.369325386258339)"><svg viewBox="0 0 395.52 133.26134922748332" height="133.26134922748332" width="395.52"><g><svg viewBox="0 0 636.6024304072711 214.48851839999998" height="133.26134922748332" width="395.52"><g transform="matrix(1,0,0,1,241.08243040727106,50.919363811923496)"><svg viewBox="0 0 395.52 112.64979077615298" height="112.64979077615298" width="395.52"><g id="textblocktransform"><svg viewBox="0 0 395.52 112.64979077615298" height="112.64979077615298" width="395.52" id="textblock"><g><svg viewBox="0 0 395.52 112.64979077615298" height="112.64979077615298" width="395.52"><g transform="matrix(1,0,0,1,0,0)"><svg width="395.52" viewBox="1.1 -31.03 111.12 31.66" height="112.64979077615298" data-palette-color="#030303"><g class="wordmark-text-0" data-fill-palette-color="primary" id="text-0"><path d="M5.3-24.4L12.05-2.78 12.65-2.78 19.4-24.4 23.6-24.4 15.68 0 9.03 0 1.1-24.4 5.3-24.4ZM37.7 0.63L37.7 0.63Q32.45 0.63 29.74-2.21 27.02-5.05 27.02-10.38L27.02-10.38 27.02-14.1Q27.02-19.4 29.75-22.23 32.47-25.05 37.7-25.05L37.7-25.05Q42.95-25.05 45.66-22.23 48.37-19.4 48.37-14.1L48.37-14.1 48.37-10.38Q48.37-5.05 45.66-2.21 42.95 0.63 37.7 0.63ZM37.7-2.68L37.7-2.68Q40.95-2.68 42.64-4.6 44.32-6.53 44.32-10.15L44.32-10.15 44.32-14.33Q44.32-17.93 42.64-19.84 40.95-21.75 37.7-21.75L37.7-21.75Q34.47-21.75 32.77-19.84 31.07-17.93 31.07-14.33L31.07-14.33 31.07-10.15Q31.07-6.53 32.77-4.6 34.47-2.68 37.7-2.68ZM62.87 0.5L62.87 0.5Q60.05 0.5 58.32-0.35 56.6-1.2 55.82-2.93 55.05-4.65 55.05-7.23L55.05-7.23 55.05-22.63 59.05-22.63 59.05-7.7Q59.05-5.3 60.15-4.16 61.25-3.03 63.85-3.03L63.85-3.03Q65.32-3.03 66.68-3.35 68.05-3.68 69.25-4.28L69.25-4.28 68.87-0.8Q67.7-0.2 66.12 0.15 64.55 0.5 62.87 0.5ZM69-24.05L68.62-20.8 51.05-20.8 51.05-24.05 69-24.05ZM59.12-31.03L58.95-23.65 55.07-23.65 55.05-30.5 59.12-31.03ZM77.62-14.93L77.62-14.93 76.69-18.05 77.69-18.1Q78.49-21.2 80.44-22.99 82.39-24.78 85.62-24.78L85.62-24.78Q86.42-24.78 87.06-24.65 87.69-24.53 88.19-24.35L88.19-24.35 88.44-20.43Q87.82-20.63 87.06-20.75 86.29-20.88 85.37-20.88L85.37-20.88Q82.62-20.88 80.58-19.35 78.54-17.82 77.62-14.93ZM77.82-16.9L77.82 0 73.77 0 73.77-24.4 77.72-24.4 77.52-17.2 77.82-16.9ZM101.14-10.6L94.82 0 90.39 0 98.39-13.28 98.39-12.13 90.54-24.4 94.99-24.4 101.14-14.48 101.49-14.48 107.62-24.4 112.07-24.4 104.22-12.13 104.22-13.28 112.22 0 107.79 0 101.49-10.6 101.14-10.6Z" fill="#030303" data-fill-palette-color="primary"></path></g></svg></g></svg></g></svg></g></svg></g><g><svg viewBox="0 0 214.48851839999998 214.48851839999998" height="214.48851839999998" width="214.48851839999998"><g><svg></svg></g><g id="icon-0"><svg viewBox="0 0 214.48851839999998 214.48851839999998" height="214.48851839999998" width="214.48851839999998"><g><rect width="195.02567136" height="195.02567136" x="9.731423519999993" y="9.731423519999993" fill="#0d63d9" data-fill-palette-color="accent"></rect><rect width="195.02567136" height="195.02567136" x="19.462847039999993" y="-5.329070518200751e-15" fill="#0d63d9" opacity="0.5" data-fill-palette-color="accent"></rect></g><g transform="matrix(1,0,0,1,27.80406719999999,27.80406719999999)"><svg viewBox="0 0 158.880384 158.880384" height="158.880384" width="158.880384"><g><svg xmlns="http://www.w3.org/2000/svg" xmlns:xlink="http://www.w3.org/1999/xlink" version="1.1" x="0" y="0" viewBox="0 0 100 100" enable-background="new 0 0 100 100" xml:space="preserve" height="158.880384" width="158.880384" class="icon-dxe-0" data-fill-palette-color="quaternary" id="dxe-0"><path d="M50 0C22.4 0 0 22.4 0 50S22.4 100 50 100 100 77.6 100 50 77.6 0 50 0M29.7 41.4C27.8 41.3 24.2 41.2 22.2 40.9 20.6 40.8 19.5 39.7 19.5 38.1 19.5 36.6 20.3 35.8 21.5 35.6 20.2 35.5 19.3 34.5 19.5 32.9 19.7 31.2 20.7 30.7 22 30.6 21.3 30.3 20.9 29.2 21.2 28.1 21.9 25.7 24 26 24 26 23.5 25.6 23.3 25 23.6 24.1 23.9 23.1 24.4 22.5 25.3 22.3 26.9 21.9 29 21.6 34 22.3 36.6 22.7 40.3 23.4 43.1 24.6 44.8 25.1 47.4 25.2 50.5 25.2 51.2 25.2 51.8 26.8 51.8 31.8S51.2 38.4 50.5 38.4C47.6 38.4 45.5 38.8 44.8 38.9 40.8 39.7 41.3 40.6 37.9 42.9 34.1 45.5 34.4 45.6 33.2 47.3 32.1 48.9 31.4 48.9 30.4 51.2 29.7 52.7 29.3 53.7 28.2 53.5 27.5 53.4 26.5 52.2 26.5 50.9 26.5 48.4 27.2 46.3 28.9 44.4 29.7 43.1 30.1 42.8 29.7 41.4M27.2 70.3L70.2 27.3 72.7 29.8 29.7 72.8zM80.5 67.1C80.3 68.8 79.3 69.3 78 69.4 78.7 69.7 79.1 70.8 78.8 71.9 78.1 74.3 76 74 76 74 76.5 74.4 76.7 75 76.4 75.9 76.1 76.9 75.6 77.5 74.7 77.7 73.1 78.1 71 78.4 66 77.7 63.4 77.3 59.7 76.6 56.9 75.4 55.2 74.9 52.6 74.8 49.5 74.8 48.8 74.8 48.2 73.2 48.2 68.2S48.8 61.6 49.5 61.6C52.4 61.6 54.5 61.2 55.2 61.1 59.2 60.3 58.7 59.4 62.1 57.1 65.9 54.5 65.6 54.4 66.8 52.7 67.9 51.1 68.6 51.1 69.6 48.8 70.3 47.3 70.7 46.3 71.8 46.5 72.5 46.6 73.5 47.8 73.5 49.1 73.5 51.6 72.8 53.7 71.1 55.6 70.3 56.9 70 57.2 70.3 58.5 72.2 58.6 75.8 58.7 77.8 59 79.4 59.1 80.5 60.2 80.5 61.8 80.5 63.3 79.7 64.1 78.5 64.3 79.7 64.4 80.7 65.5 80.5 67.1" fill="#f9f9f9" data-fill-palette-color="quaternary"></path></svg></g></svg></g></svg></g></svg></g></svg></g><defs></defs></svg><rect width="395.52" height="133.26134922748332" fill="none" stroke="none" visibility="hidden"></rect></g></svg></g></svg>